{"title":"Jochem.Myjer.De.Rust.Zelve.TVRIP-MisterDeee","uid":6052617,"size":648467488,"categoryP":"video","categoryS":"tv_shows","magnet":"?xt=urn:btih:0755374962f58996b38cdcc4b8303db6b6b7b30a&amp;dn=Jochem.Myjer.De.Rust.Zelve.TVRIP-MisterDeee&amp;tr=udp%3A%2F%2Ftracker.openbittorrent.com%3A80&amp;tr=udp%3A%2F%2Fopen.demonii.com%3A1337&amp;tr=udp%3A%2F%2Ftracker.coppersurfer.tk%3A6969&amp;tr=udp%3A%2F%2Fexodus.desync.com%3A6969","seeders":0,"leechers":0,"uploader":"MisterDeee","files":-1,"time":1292790376,"description":"Caberetshow: Jochem Myjer - De Rust Zelve\nTVRIP van 18-12-2010\n\nGeneral\nFormat                           : AVI\nFormat/Info                      : Audio Video Interleave\nFile size                        : 618 MiB\nDuration                         : 1h 32mn\nOverall bit rate                 : 935 Kbps\nWriting application              : Lavf52.73.0\n\nVideo\nFormat                           : MPEG-4 Visual\nCodec ID                         : DIV3\nCodec ID/Hint                    : DivX 3 Low\nDuration                         : 1h 32mn\nBit rate                         : 800 Kbps\nWidth                            : 720 pixels\nHeight                           : 576 pixels\nDisplay aspect ratio             : 5:4\nFrame rate                       : 25.000 fps\nStandard                         : PAL\nColor space                      : YUV\nChroma subsampling               : 4:2:0\nBit depth                        : 8 bits\nBits/(Pixel*Frame)               : 0.077\nStream size                      : 530 MiB (86%)\n\nAudio\nFormat                           : MPEG Audio\nFormat version                   : Version 1\nFormat profile                   : Layer 3\nMode                             : Joint stereo\nMode extension                   : MS Stereo\nCodec ID                         : 55\nCodec ID/Hint                    : MP3\nDuration                         : 1h 32mn\nBit rate mode                    : Variable\nBit rate                         : 112 Kbps\nChannel(s)                       : 2 channels\nSampling rate                    : 44.1 KHz\nStream size                      : 80.5 MiB (13%)\nAlignment                        : Aligned on interleaves\nInterleave, duration             : 26 ms (0.65 video frame)\nInterleave, preload duration     : 7 ms","torrent":{"xt":"urn:btih:0755374962f58996b38cdcc4b8303db6b6b7b30a","amp;dn":"Jochem.Myjer.De.Rust.Zelve.TVRIP-MisterDeee","amp;tr":["udp%3A%2F%2Ftracker.openbittorrent.com%3A80","udp%3A%2F%2Fopen.demonii.com%3A1337","udp%3A%2F%2Ftracker.coppersurfer.tk%3A6969","udp%3A%2F%2Fexodus.desync.com%3A6969"],"infoHash":"0755374962f58996b38cdcc4b8303db6b6b7b30a","infoHashBuffer":{"type":"Buffer","data":[7,85,55,73,98,245,137,150,179,140,220,196,184,48,61,182,182,183,179,10]},"announce":[],"urlList":[]}}